<svg xmlns="http://www.w3.org/2000/svg" width="1920" viewBox="0 0 1440 810" height="1080" version="1.0"><defs><clipPath id="l"><path d="M670 403h69.695v7H670zm0 0"/></clipPath><clipPath id="a"><path d="M670 289.8h69.695v6.2H670zm0 0"/></clipPath><clipPath id="c"><path d="M670 307h69.695v9H670zm0 0"/></clipPath><clipPath id="d"><path d="M670 321h69.695v13H670zm0 0"/></clipPath><clipPath id="e"><path d="M670 336h69.695v3H670zm0 0"/></clipPath><clipPath id="f"><path d="M670 342h69.695v9H670zm0 0"/></clipPath><clipPath id="g"><path d="M670 354h69.695v3H670zm0 0"/></clipPath><clipPath id="h"><path d="M670 359h69.695v7H670zm0 0"/></clipPath><clipPath id="i"><path d="M670 371h69.695v9H670zm0 0"/></clipPath><clipPath id="j"><path d="M670 386h69.695v3H670zm0 0"/></clipPath><clipPath id="k"><path d="M670 397h69.695v4H670zm0 0"/></clipPath><clipPath id="b"><path d="M670 298h69.695v3H670zm0 0"/></clipPath><clipPath id="m"><path d="M670 418h69.695v9H670zm0 0"/></clipPath><clipPath id="n"><path d="M670 436h69.695v3H670zm0 0"/></clipPath><clipPath id="o"><path d="M670 441h69.695v7H670zm0 0"/></clipPath><clipPath id="p"><path d="M670 450h69.695v3H670zm0 0"/></clipPath><clipPath id="q"><path d="M670 456h69.695v6H670zm0 0"/></clipPath><clipPath id="r"><path d="M670 465h69.695v9H670zm0 0"/></clipPath><clipPath id="s"><path d="M670 482h69.695v7H670zm0 0"/></clipPath><clipPath id="t"><path d="M670 497h69.695v9H670zm0 0"/></clipPath><clipPath id="u"><path d="M670 508h69.695v4H670zm0 0"/></clipPath><clipPath id="v"><path d="M670 514h69.695v6.05H670zm0 0"/></clipPath></defs><g clip-path="url(#a)"><path d="M739.477 289.86v5.363H670.3V289.8h69.094c.039-.004.078-.008.082.058zm0 0" fill-rule="evenodd"/></g><g clip-path="url(#b)"><path d="M739.477 298.61c-.016.75.039 1.652-.028 2.312h-69.094c-.109-.547-.054-1.727-.027-2.371h69.067c.039-.004.078-.008.082.058zm0 0" fill-rule="evenodd"/></g><g clip-path="url(#c)"><path d="M739.477 307.414v8.129H670.3v-8.184h69.094c.039-.007.078-.011.082.055zm0 0" fill-rule="evenodd"/></g><g clip-path="url(#d)"><path d="M739.477 322.035v11.063H670.3v-11.121h69.094c.039-.004.078-.008.082.058zm0 0" fill-rule="evenodd"/></g><g clip-path="url(#e)"><path d="M739.477 336.71c-.016.735.039 1.618-.028 2.259h-69.148c.02-.754-.035-1.656.027-2.313h69.067c.039-.008.078-.011.082.055zm0 0" fill-rule="evenodd"/></g><g clip-path="url(#f)"><path d="M739.477 342.355v8.356H670.3v-8.414h69.094c.039-.004.078-.008.082.058zm0 0" fill-rule="evenodd"/></g><g clip-path="url(#g)"><path d="M739.477 354.266c-.016.734.039 1.617-.028 2.257h-69.148c.02-.753-.035-1.656.027-2.312h69.067c.039-.008.078-.012.082.055zm0 0" fill-rule="evenodd"/></g><g clip-path="url(#h)"><path d="M739.477 359.91v5.418H670.3v-5.363c-.004-.063.008-.098.027-.11h69.067c.039-.007.078-.011.082.055zm0 0" fill-rule="evenodd"/></g><g clip-path="url(#i)"><path d="M739.477 371.82v7.961H670.3v-7.902c-.004-.067.008-.102.027-.117h69.067c.039 0 .078-.008.082.058zm0 0" fill-rule="evenodd"/></g><g clip-path="url(#j)"><path d="M739.477 386.27c-.016.753.039 1.656-.028 2.316h-69.094c-.109-.547-.054-1.73-.027-2.371h69.067c.039-.004.078-.008.082.055zm0 0" fill-rule="evenodd"/></g><g clip-path="url(#k)"><path d="M739.477 398.012v2.43H670.3v-2.485h69.094c.039-.004.078-.012.082.055zm0 0" fill-rule="evenodd"/></g><g clip-path="url(#l)"><path d="M739.477 403.828v5.418H670.3v-5.363c-.004-.067.008-.102.027-.113h69.067c.039-.004.078-.008.082.058zm0 0" fill-rule="evenodd"/></g><g clip-path="url(#m)"><path d="M739.477 418.504v8.129H670.3v-8.188h69.094c.039-.004.078-.007.082.059zm0 0" fill-rule="evenodd"/></g><g clip-path="url(#n)"><path d="M739.477 436.059c-.016.734.039 1.617-.028 2.257h-69.148c.02-.753-.035-1.656.027-2.316h69.067c.039-.004.078-.008.082.059zm0 0" fill-rule="evenodd"/></g><g clip-path="url(#o)"><path d="M739.477 441.93v5.191H670.3v-5.25h69.094c.039-.004.078-.008.082.059zm0 0" fill-rule="evenodd"/></g><g clip-path="url(#p)"><path d="M739.477 450.68c-.016.754.039 1.656-.028 2.312h-69.094c-.109-.547-.054-1.726-.027-2.367h69.067c.039-.008.078-.012.082.055zm0 0" fill-rule="evenodd"/></g><g clip-path="url(#q)"><path d="M739.477 456.383v5.36H670.3v-5.419h69.094c.039-.004.078-.012.082.059zm0 0" fill-rule="evenodd"/></g><g clip-path="url(#r)"><path d="M739.477 465.129v8.129H670.3v-8.184h69.094c.039-.004.078-.012.082.055zm0 0" fill-rule="evenodd"/></g><g clip-path="url(#s)"><path d="M739.477 482.684v5.418H670.3v-5.36c-.004-.066.008-.101.027-.113h69.067c.039-.008.078-.012.082.055zm0 0" fill-rule="evenodd"/></g><g clip-path="url(#t)"><path d="M739.477 497.363v8.352H670.3v-8.41h69.094c.039-.004.078-.008.082.058zm0 0" fill-rule="evenodd"/></g><g clip-path="url(#u)"><path d="M739.477 509.047c-.016.75.039 1.652-.028 2.312h-69.094c-.109-.546-.054-1.73-.027-2.37h69.067c.039-.005.078-.012.082.058zm0 0" fill-rule="evenodd"/></g><g clip-path="url(#v)"><path d="M739.477 514.918v5.191H670.3v-5.25h69.094c.039-.004.078-.007.082.059zm0 0" fill-rule="evenodd"/></g><g fill="#737373"><path d="M744.72 421.057c0-.843.292-1.5.874-1.968.574-.47 1.387-.703 2.438-.703 1.054 0 1.875.234 2.468.703.586.468.875 1.125.875 1.968 0 .418-.078.797-.234 1.141a2.209 2.209 0 0 1-.719.875v.063l.828.203v.703h-9.125v-.969h2.22c.5 0 .948.016 1.343.047v-.047c-.645-.457-.969-1.129-.969-2.016zm.812.141c0 .656.195 1.137.578 1.438.375.292 1.015.437 1.922.437.906 0 1.554-.148 1.937-.453.387-.3.578-.785.578-1.453 0-.594-.21-1.035-.64-1.328-.438-.29-1.067-.438-1.891-.438-.832 0-1.453.149-1.86.438-.413.293-.624.746-.624 1.359zM746.953 411.454c1.481 0 2.59.234 3.329.703.73.469 1.093 1.184 1.093 2.14 0 .919-.375 1.622-1.125 2.11-.75.48-1.847.719-3.297.719-1.488 0-2.593-.235-3.312-.703-.727-.47-1.094-1.176-1.094-2.125 0-.926.383-1.63 1.14-2.11.75-.488 1.84-.734 3.266-.734zm0 4.687c1.25 0 2.165-.144 2.735-.437.562-.3.844-.77.844-1.406 0-.645-.286-1.114-.86-1.407-.582-.289-1.488-.437-2.719-.437-1.226 0-2.128.148-2.703.437-.57.293-.859.762-.859 1.407 0 .636.281 1.105.844 1.406.562.293 1.468.437 2.718.437zM751.25 405.874l-.922.203v.047c.407.312.684.633.829.953.144.312.218.71.218 1.187 0 .637-.164 1.137-.5 1.5-.332.368-.8.547-1.406.547-1.289 0-1.969-1.035-2.031-3.11l-.031-1.093H747c-.5 0-.867.11-1.109.328-.238.211-.36.555-.36 1.032 0 .543.165 1.148.485 1.812l-.75.313a4.91 4.91 0 0 1-.39-1.047 4.342 4.342 0 0 1-.157-1.14c0-.759.172-1.321.516-1.688.336-.375.875-.563 1.625-.563h4.39zm-.687 2.203c0-.602-.164-1.078-.5-1.422-.332-.352-.797-.531-1.39-.531h-.579l.031.984c.032.774.157 1.328.375 1.672.211.336.54.5.985.5.355 0 .625-.102.812-.312.18-.207.266-.504.266-.891zM751.375 400.59c0 .93-.285 1.649-.859 2.157-.57.512-1.383.765-2.438.765-1.07 0-1.898-.257-2.484-.78-.594-.52-.89-1.255-.89-2.204 0-.312.039-.617.109-.922a2.8 2.8 0 0 1 .234-.734l.828.297a3.888 3.888 0 0 0-.218.703 3.45 3.45 0 0 0-.079.672c0 1.304.829 1.953 2.485 1.953.793 0 1.402-.156 1.828-.469.418-.32.625-.797.625-1.422a4.31 4.31 0 0 0-.344-1.64h.86c.226.43.343.968.343 1.625zM751.25 393.487l-.922.203v.047c.407.313.684.633.829.953.144.313.218.711.218 1.188 0 .636-.164 1.136-.5 1.5-.332.367-.8.547-1.406.547-1.289 0-1.969-1.036-2.031-3.11l-.031-1.094H747c-.5 0-.867.11-1.109.329-.238.21-.36.554-.36 1.03 0 .544.165 1.15.485 1.813l-.75.313a4.91 4.91 0 0 1-.39-1.047 4.342 4.342 0 0 1-.157-1.14c0-.758.172-1.321.516-1.688.336-.375.875-.563 1.625-.563h4.39zm-.687 2.203c0-.601-.164-1.078-.5-1.422-.332-.351-.797-.53-1.39-.53h-.579l.031.983c.032.774.157 1.329.375 1.672.211.336.54.5.985.5.355 0 .625-.101.812-.312.18-.207.266-.504.266-.89zM751.25 385.579v5.625h-.843l-2.266-2.25c-.695-.688-1.191-1.14-1.484-1.36a3.725 3.725 0 0 0-.875-.484 2.399 2.399 0 0 0-.907-.172c-.457 0-.816.14-1.078.422-.27.274-.406.656-.406 1.156 0 .356.062.696.187 1.016.118.313.325.664.625 1.047l-.656.516c-.656-.782-.984-1.641-.984-2.579 0-.8.21-1.43.625-1.89.406-.457.96-.688 1.656-.688.543 0 1.078.157 1.61.469.53.305 1.203.871 2.015 1.703l1.828 1.875h.047v-4.406zm0 0"/></g></svg>