<svg xmlns="http://www.w3.org/2000/svg" xmlns:xlink="http://www.w3.org/1999/xlink" width="53" zoomAndPan="magnify" viewBox="0 0 39.75 98.999996" height="132" preserveAspectRatio="xMidYMid meet" version="1.0"><defs><g/><clipPath id="89e4d6bcc0"><path d="M 0 0.308594 L 39.5 0.308594 L 39.5 98.691406 L 0 98.691406 Z M 0 0.308594 " clip-rule="nonzero"/></clipPath><clipPath id="c8670e2de3"><path d="M 0 84 L 39.5 84 L 39.5 85 L 0 85 Z M 0 84 " clip-rule="nonzero"/></clipPath><clipPath id="149f4887e4"><path d="M 0 19 L 39.5 19 L 39.5 20 L 0 20 Z M 0 19 " clip-rule="nonzero"/></clipPath><clipPath id="14c1780d38"><path d="M 0 34 L 39.5 34 L 39.5 35 L 0 35 Z M 0 34 " clip-rule="nonzero"/></clipPath><clipPath id="f6caa9b0f0"><path d="M 0 46 L 39.5 46 L 39.5 48 L 0 48 Z M 0 46 " clip-rule="nonzero"/></clipPath><clipPath id="f00fa6d1ae"><path d="M 0 40 L 39.5 40 L 39.5 44 L 0 44 Z M 0 40 " clip-rule="nonzero"/></clipPath><clipPath id="b0e23d993e"><path d="M 0 35 L 39.5 35 L 39.5 39 L 0 39 Z M 0 35 " clip-rule="nonzero"/></clipPath><clipPath id="37b43fc88f"><path d="M 0 31 L 39.5 31 L 39.5 34 L 0 34 Z M 0 31 " clip-rule="nonzero"/></clipPath><clipPath id="b4bee9e198"><path d="M 0 25 L 39.5 25 L 39.5 29 L 0 29 Z M 0 25 " clip-rule="nonzero"/></clipPath><clipPath id="3fd40eb7a0"><path d="M 0 21 L 39.5 21 L 39.5 23 L 0 23 Z M 0 21 " clip-rule="nonzero"/></clipPath><clipPath id="d542e29f01"><path d="M 0 16 L 39.5 16 L 39.5 18 L 0 18 Z M 0 16 " clip-rule="nonzero"/></clipPath><clipPath id="9f6d18751e"><path d="M 0 10 L 39.5 10 L 39.5 14 L 0 14 Z M 0 10 " clip-rule="nonzero"/></clipPath><clipPath id="70ba0289d0"><path d="M 0 6 L 39.5 6 L 39.5 8 L 0 8 Z M 0 6 " clip-rule="nonzero"/></clipPath><clipPath id="2ceff0d074"><path d="M 0 8 L 39.5 8 L 39.5 10 L 0 10 Z M 0 8 " clip-rule="nonzero"/></clipPath><clipPath id="393751dd78"><path d="M 0 4 L 39.5 4 L 39.5 6 L 0 6 Z M 0 4 " clip-rule="nonzero"/></clipPath><clipPath id="9a3d2126e4"><path d="M 0.00390625 0.308594 L 39.5 0.308594 L 39.5 3.714844 L 0.00390625 3.714844 Z M 0.00390625 0.308594 " clip-rule="nonzero"/></clipPath><clipPath id="ba5f142e21"><path d="M 0 95 L 39.5 95 L 39.5 98.691406 L 0 98.691406 Z M 0 95 " clip-rule="nonzero"/></clipPath><clipPath id="2fb08f8e42"><path d="M 0 91 L 39.5 91 L 39.5 94 L 0 94 Z M 0 91 " clip-rule="nonzero"/></clipPath><clipPath id="8db411cafe"><path d="M 0 86 L 39.5 86 L 39.5 88 L 0 88 Z M 0 86 " clip-rule="nonzero"/></clipPath><clipPath id="34b0c072c4"><path d="M 0 45 L 39.5 45 L 39.5 46 L 0 46 Z M 0 45 " clip-rule="nonzero"/></clipPath><clipPath id="cb59f286e8"><path d="M 0 89 L 39.5 89 L 39.5 90 L 0 90 Z M 0 89 " clip-rule="nonzero"/></clipPath><clipPath id="7fe5be3ef8"><path d="M 0 78 L 39.5 78 L 39.5 83 L 0 83 Z M 0 78 " clip-rule="nonzero"/></clipPath><clipPath id="c1abcf851e"><path d="M 0 74 L 39.5 74 L 39.5 77 L 0 77 Z M 0 74 " clip-rule="nonzero"/></clipPath><clipPath id="0fcbbcc5f5"><path d="M 0 69 L 39.5 69 L 39.5 72 L 0 72 Z M 0 69 " clip-rule="nonzero"/></clipPath><clipPath id="d2597d3864"><path d="M 0 64 L 39.5 64 L 39.5 67 L 0 67 Z M 0 64 " clip-rule="nonzero"/></clipPath><clipPath id="0216dae814"><path d="M 0 54 L 39.5 54 L 39.5 56 L 0 56 Z M 0 54 " clip-rule="nonzero"/></clipPath><clipPath id="fd720b06b7"><path d="M 0 56 L 39.5 56 L 39.5 58 L 0 58 Z M 0 56 " clip-rule="nonzero"/></clipPath><clipPath id="db31685b05"><path d="M 0 59 L 39.5 59 L 39.5 60 L 0 60 Z M 0 59 " clip-rule="nonzero"/></clipPath><clipPath id="ad367a6872"><path d="M 0 61 L 39.5 61 L 39.5 63 L 0 63 Z M 0 61 " clip-rule="nonzero"/></clipPath><clipPath id="3ef5f0097b"><path d="M 0 49 L 39.5 49 L 39.5 51 L 0 51 Z M 0 49 " clip-rule="nonzero"/></clipPath><clipPath id="ac1f4dadb8"><path d="M 0 52 L 39.5 52 L 39.5 54 L 0 54 Z M 0 52 " clip-rule="nonzero"/></clipPath><clipPath id="3ff1781037"><path d="M 10 0.308594 L 12 0.308594 L 12 2 L 10 2 Z M 10 0.308594 " clip-rule="nonzero"/></clipPath><clipPath id="6f65ab9140"><path d="M 11 0.308594 L 13 0.308594 L 13 2 L 11 2 Z M 11 0.308594 " clip-rule="nonzero"/></clipPath><clipPath id="379dc74d87"><path d="M 12 0.308594 L 14 0.308594 L 14 2 L 12 2 Z M 12 0.308594 " clip-rule="nonzero"/></clipPath><clipPath id="56a8787ab0"><path d="M 13 0.308594 L 15 0.308594 L 15 2 L 13 2 Z M 13 0.308594 " clip-rule="nonzero"/></clipPath><clipPath id="3db1bd3395"><path d="M 14 0.308594 L 15 0.308594 L 15 2 L 14 2 Z M 14 0.308594 " clip-rule="nonzero"/></clipPath><clipPath id="18040b685f"><path d="M 15 0.308594 L 17 0.308594 L 17 2 L 15 2 Z M 15 0.308594 " clip-rule="nonzero"/></clipPath><clipPath id="fea48315bc"><path d="M 16 0.308594 L 18 0.308594 L 18 2 L 16 2 Z M 16 0.308594 " clip-rule="nonzero"/></clipPath><clipPath id="434dc8cee4"><path d="M 17 0.308594 L 19 0.308594 L 19 2 L 17 2 Z M 17 0.308594 " clip-rule="nonzero"/></clipPath><clipPath id="680a58e553"><path d="M 18 0.308594 L 20 0.308594 L 20 2 L 18 2 Z M 18 0.308594 " clip-rule="nonzero"/></clipPath><clipPath id="4c634f45ec"><path d="M 19 0.308594 L 21 0.308594 L 21 3 L 19 3 Z M 19 0.308594 " clip-rule="nonzero"/></clipPath><clipPath id="c0184c45b5"><path d="M 21 0.308594 L 23 0.308594 L 23 2 L 21 2 Z M 21 0.308594 " clip-rule="nonzero"/></clipPath><clipPath id="243a4ea968"><path d="M 22 0.308594 L 24 0.308594 L 24 2 L 22 2 Z M 22 0.308594 " clip-rule="nonzero"/></clipPath><clipPath id="dc2428009a"><path d="M 23 0.308594 L 25 0.308594 L 25 2 L 23 2 Z M 23 0.308594 " clip-rule="nonzero"/></clipPath><clipPath id="9796b992f3"><path d="M 24 0.308594 L 26 0.308594 L 26 2 L 24 2 Z M 24 0.308594 " clip-rule="nonzero"/></clipPath><clipPath id="8bcb9e5405"><path d="M 25 0.308594 L 28 0.308594 L 28 2 L 25 2 Z M 25 0.308594 " clip-rule="nonzero"/></clipPath><clipPath id="28a3855879"><path d="M 27 0.308594 L 29 0.308594 L 29 2 L 27 2 Z M 27 0.308594 " clip-rule="nonzero"/></clipPath><clipPath id="3f8daf8fa9"><path d="M 28 0.308594 L 30 0.308594 L 30 2 L 28 2 Z M 28 0.308594 " clip-rule="nonzero"/></clipPath></defs><g clip-path="url(#89e4d6bcc0)"><path fill="#ffffff" d="M 0 0.308594 L 39.5 0.308594 L 39.5 98.691406 L 0 98.691406 Z M 0 0.308594 " fill-opacity="1" fill-rule="nonzero"/><path fill="#ffffff" d="M 0 0.308594 L 39.5 0.308594 L 39.5 98.691406 L 0 98.691406 Z M 0 0.308594 " fill-opacity="1" fill-rule="nonzero"/></g><g clip-path="url(#c8670e2de3)"><path fill="#000000" d="M 0 84.382812 L 0 84.804688 L 40.046875 84.804688 L 40.046875 84.382812 L 0 84.382812 " fill-opacity="1" fill-rule="nonzero"/></g><g clip-path="url(#149f4887e4)"><path fill="#000000" d="M 0 19.53125 L 0 19.953125 L 40.046875 19.953125 L 40.046875 19.53125 L 0 19.53125 " fill-opacity="1" fill-rule="nonzero"/></g><g clip-path="url(#14c1780d38)"><path fill="#000000" d="M 0 34.269531 L 0 34.691406 L 40.046875 34.691406 L 40.046875 34.269531 L 0 34.269531 " fill-opacity="1" fill-rule="nonzero"/></g><g clip-path="url(#f6caa9b0f0)"><path fill="#000000" d="M 0 46.925781 L 0 47.769531 L 40.046875 47.769531 L 40.046875 46.925781 L 0 46.925781 " fill-opacity="1" fill-rule="nonzero"/></g><g clip-path="url(#f00fa6d1ae)"><path fill="#000000" d="M 0 40.746094 L 0 43.835938 L 40.046875 43.835938 L 40.046875 40.746094 L 0 40.746094 " fill-opacity="1" fill-rule="nonzero"/></g><g clip-path="url(#b0e23d993e)"><path fill="#000000" d="M 0 35.871094 L 0 38.59375 L 40.046875 38.59375 L 40.046875 35.871094 L 0 35.871094 " fill-opacity="1" fill-rule="nonzero"/></g><g clip-path="url(#37b43fc88f)"><path fill="#000000" d="M 0 31.261719 L 0 33.089844 L 40.046875 33.089844 L 40.046875 31.261719 L 0 31.261719 " fill-opacity="1" fill-rule="nonzero"/></g><g clip-path="url(#b4bee9e198)"><path fill="#000000" d="M 0 25.460938 L 0 28.777344 L 40.046875 28.777344 L 40.046875 25.460938 L 0 25.460938 " fill-opacity="1" fill-rule="nonzero"/></g><g clip-path="url(#3fd40eb7a0)"><path fill="#000000" d="M 0 21.640625 L 0 22.480469 L 40.046875 22.480469 L 40.046875 21.640625 L 0 21.640625 " fill-opacity="1" fill-rule="nonzero"/></g><g clip-path="url(#d542e29f01)"><path fill="#000000" d="M 0 16.160156 L 0 17.84375 L 40.046875 17.84375 L 40.046875 16.160156 L 0 16.160156 " fill-opacity="1" fill-rule="nonzero"/></g><g clip-path="url(#9f6d18751e)"><path fill="#000000" d="M 0 10.597656 L 0 13.292969 L 40.046875 13.292969 L 40.046875 10.597656 L 0 10.597656 " fill-opacity="1" fill-rule="nonzero"/></g><g clip-path="url(#70ba0289d0)"><path fill="#000000" d="M 0 6.464844 L 0 7.308594 L 40.046875 7.308594 L 40.046875 6.464844 L 0 6.464844 " fill-opacity="1" fill-rule="nonzero"/></g><g clip-path="url(#2ceff0d074)"><path fill="#000000" d="M 0 8.53125 L 0 9.375 L 40.046875 9.375 L 40.046875 8.53125 L 0 8.53125 " fill-opacity="1" fill-rule="nonzero"/></g><g clip-path="url(#393751dd78)"><path fill="#000000" d="M 0 4.570312 L 0 5.410156 L 40.046875 5.410156 L 40.046875 4.570312 L 0 4.570312 " fill-opacity="1" fill-rule="nonzero"/></g><g clip-path="url(#9a3d2126e4)"><path fill="#000000" d="M 0 0.144531 L 0 3.515625 L 40.046875 3.515625 L 40.046875 0.144531 L 0 0.144531 " fill-opacity="1" fill-rule="nonzero"/></g><g clip-path="url(#ba5f142e21)"><path fill="#000000" d="M 0 95.636719 L 0 99.261719 L 40.046875 99.261719 L 40.046875 95.636719 L 0 95.636719 " fill-opacity="1" fill-rule="nonzero"/></g><g clip-path="url(#2fb08f8e42)"><path fill="#000000" d="M 0 91.070312 L 0 93.710938 L 40.046875 93.710938 L 40.046875 91.070312 L 0 91.070312 " fill-opacity="1" fill-rule="nonzero"/></g><g clip-path="url(#8db411cafe)"><path fill="#000000" d="M 0 86.785156 L 0 87.878906 L 40.046875 87.878906 L 40.046875 86.785156 L 0 86.785156 " fill-opacity="1" fill-rule="nonzero"/></g><g clip-path="url(#34b0c072c4)"><path fill="#000000" d="M 0 45.003906 L 0 45.761719 L 40.046875 45.761719 L 40.046875 45.003906 L 0 45.003906 " fill-opacity="1" fill-rule="nonzero"/></g><g clip-path="url(#cb59f286e8)"><path fill="#000000" d="M 0 89.097656 L 0 89.855469 L 40.046875 89.855469 L 40.046875 89.097656 L 0 89.097656 " fill-opacity="1" fill-rule="nonzero"/></g><g clip-path="url(#7fe5be3ef8)"><path fill="#000000" d="M 0 78.207031 L 0 82.789062 L 40.046875 82.789062 L 40.046875 78.207031 L 0 78.207031 " fill-opacity="1" fill-rule="nonzero"/></g><g clip-path="url(#c1abcf851e)"><path fill="#000000" d="M 0 74.695312 L 0 76.183594 L 40.046875 76.183594 L 40.046875 74.695312 L 0 74.695312 " fill-opacity="1" fill-rule="nonzero"/></g><g clip-path="url(#0fcbbcc5f5)"><path fill="#000000" d="M 0 69.316406 L 0 71.449219 L 40.046875 71.449219 L 40.046875 69.316406 L 0 69.316406 " fill-opacity="1" fill-rule="nonzero"/></g><g clip-path="url(#d2597d3864)"><path fill="#000000" d="M 0 64.398438 L 0 66.253906 L 40.046875 66.253906 L 40.046875 64.398438 L 0 64.398438 " fill-opacity="1" fill-rule="nonzero"/></g><g clip-path="url(#0216dae814)"><path fill="#000000" d="M 0 54.761719 L 0 55.660156 L 40.046875 55.660156 L 40.046875 54.761719 L 0 54.761719 " fill-opacity="1" fill-rule="nonzero"/></g><g clip-path="url(#fd720b06b7)"><path fill="#000000" d="M 0 56.902344 L 0 57.800781 L 40.046875 57.800781 L 40.046875 56.902344 L 0 56.902344 " fill-opacity="1" fill-rule="nonzero"/></g><g clip-path="url(#db31685b05)"><path fill="#000000" d="M 0 59.042969 L 0 59.945312 L 40.046875 59.945312 L 40.046875 59.042969 L 0 59.042969 " fill-opacity="1" fill-rule="nonzero"/></g><g clip-path="url(#ad367a6872)"><path fill="#000000" d="M 0 61.1875 L 0 62.085938 L 40.046875 62.085938 L 40.046875 61.1875 L 0 61.1875 " fill-opacity="1" fill-rule="nonzero"/></g><g clip-path="url(#3ef5f0097b)"><path fill="#000000" d="M 0 49.71875 L 0 50.585938 L 40.046875 50.585938 L 40.046875 49.71875 L 0 49.71875 " fill-opacity="1" fill-rule="nonzero"/></g><g clip-path="url(#ac1f4dadb8)"><path fill="#000000" d="M 0 52.238281 L 0 53.109375 L 40.046875 53.109375 L 40.046875 52.238281 L 0 52.238281 " fill-opacity="1" fill-rule="nonzero"/></g><g clip-path="url(#3ff1781037)"><g fill="#000000" fill-opacity="1"><g transform="translate(10.125769, 1.601247)"><g><path d="M 0.625 0 L 0.46875 0 L 0.46875 -1.265625 L 0.015625 -1.265625 L 0.015625 -1.421875 L 1.078125 -1.421875 L 1.078125 -1.265625 L 0.625 -1.265625 Z M 0.625 0 "/></g></g></g></g><g clip-path="url(#6f65ab9140)"><g fill="#000000" fill-opacity="1"><g transform="translate(11.221004, 1.601247)"><g><path d="M 0.625 0.015625 C 0.46875 0.015625 0.34375 -0.03125 0.25 -0.125 C 0.15625 -0.21875 0.109375 -0.347656 0.109375 -0.515625 C 0.109375 -0.691406 0.148438 -0.828125 0.234375 -0.921875 C 0.316406 -1.023438 0.429688 -1.078125 0.578125 -1.078125 C 0.710938 -1.078125 0.816406 -1.03125 0.890625 -0.9375 C 0.972656 -0.851562 1.015625 -0.742188 1.015625 -0.609375 L 1.015625 -0.5 L 0.28125 -0.5 C 0.28125 -0.375 0.3125 -0.28125 0.375 -0.21875 C 0.4375 -0.15625 0.519531 -0.125 0.625 -0.125 C 0.738281 -0.125 0.851562 -0.144531 0.96875 -0.1875 L 0.96875 -0.046875 C 0.90625 -0.0234375 0.847656 -0.0078125 0.796875 0 C 0.753906 0.0078125 0.695312 0.015625 0.625 0.015625 Z M 0.578125 -0.953125 C 0.492188 -0.953125 0.425781 -0.921875 0.375 -0.859375 C 0.320312 -0.804688 0.289062 -0.726562 0.28125 -0.625 L 0.84375 -0.625 C 0.84375 -0.726562 0.816406 -0.804688 0.765625 -0.859375 C 0.722656 -0.921875 0.660156 -0.953125 0.578125 -0.953125 Z M 0.578125 -0.953125 "/></g></g></g></g><g clip-path="url(#379dc74d87)"><g fill="#000000" fill-opacity="1"><g transform="translate(12.331705, 1.601247)"><g><path d="M 0.328125 -0.546875 C 0.359375 -0.585938 0.398438 -0.640625 0.453125 -0.703125 L 0.796875 -1.0625 L 0.984375 -1.0625 L 0.5625 -0.609375 L 1.015625 0 L 0.828125 0 L 0.453125 -0.5 L 0.328125 -0.390625 L 0.328125 0 L 0.171875 0 L 0.171875 -1.5 L 0.328125 -1.5 L 0.328125 -0.703125 C 0.328125 -0.671875 0.328125 -0.617188 0.328125 -0.546875 Z M 0.328125 -0.546875 "/></g></g></g></g><g clip-path="url(#56a8787ab0)"><g fill="#000000" fill-opacity="1"><g transform="translate(13.370873, 1.601247)"><g><path d="M 0.859375 -0.296875 C 0.859375 -0.191406 0.820312 -0.113281 0.75 -0.0625 C 0.675781 -0.0078125 0.570312 0.015625 0.4375 0.015625 C 0.289062 0.015625 0.179688 -0.00390625 0.109375 -0.046875 L 0.109375 -0.203125 C 0.160156 -0.171875 0.210938 -0.144531 0.265625 -0.125 C 0.328125 -0.113281 0.382812 -0.109375 0.4375 -0.109375 C 0.519531 -0.109375 0.582031 -0.117188 0.625 -0.140625 C 0.675781 -0.171875 0.703125 -0.21875 0.703125 -0.28125 C 0.703125 -0.320312 0.679688 -0.351562 0.640625 -0.375 C 0.609375 -0.40625 0.539062 -0.441406 0.4375 -0.484375 C 0.332031 -0.523438 0.257812 -0.554688 0.21875 -0.578125 C 0.175781 -0.609375 0.144531 -0.640625 0.125 -0.671875 C 0.113281 -0.710938 0.109375 -0.753906 0.109375 -0.796875 C 0.109375 -0.890625 0.140625 -0.957031 0.203125 -1 C 0.273438 -1.050781 0.375 -1.078125 0.5 -1.078125 C 0.613281 -1.078125 0.722656 -1.054688 0.828125 -1.015625 L 0.78125 -0.875 C 0.664062 -0.925781 0.566406 -0.953125 0.484375 -0.953125 C 0.410156 -0.953125 0.351562 -0.9375 0.3125 -0.90625 C 0.269531 -0.882812 0.25 -0.851562 0.25 -0.8125 C 0.25 -0.78125 0.253906 -0.753906 0.265625 -0.734375 C 0.285156 -0.710938 0.3125 -0.691406 0.34375 -0.671875 C 0.375 -0.660156 0.4375 -0.640625 0.53125 -0.609375 C 0.65625 -0.554688 0.738281 -0.503906 0.78125 -0.453125 C 0.832031 -0.410156 0.859375 -0.359375 0.859375 -0.296875 Z M 0.859375 -0.296875 "/></g></g></g></g><g clip-path="url(#3db1bd3395)"><g fill="#000000" fill-opacity="1"><g transform="translate(14.315308, 1.601247)"><g><path d="M 0.515625 -0.109375 C 0.546875 -0.109375 0.570312 -0.109375 0.59375 -0.109375 C 0.625 -0.117188 0.644531 -0.125 0.65625 -0.125 L 0.65625 -0.015625 C 0.632812 -0.00390625 0.609375 0 0.578125 0 C 0.546875 0.0078125 0.515625 0.015625 0.484375 0.015625 C 0.285156 0.015625 0.1875 -0.09375 0.1875 -0.3125 L 0.1875 -0.9375 L 0.03125 -0.9375 L 0.03125 -1.015625 L 0.1875 -1.078125 L 0.25 -1.3125 L 0.34375 -1.3125 L 0.34375 -1.0625 L 0.65625 -1.0625 L 0.65625 -0.9375 L 0.34375 -0.9375 L 0.34375 -0.3125 C 0.34375 -0.25 0.359375 -0.195312 0.390625 -0.15625 C 0.421875 -0.125 0.460938 -0.109375 0.515625 -0.109375 Z M 0.515625 -0.109375 "/></g></g></g></g><g fill="#000000" fill-opacity="1"><g transform="translate(15.014209, 1.601247)"><g/></g></g><g clip-path="url(#18040b685f)"><g fill="#000000" fill-opacity="1"><g transform="translate(15.528477, 1.601247)"><g><path d="M 0.40625 0 L 0 -1.0625 L 0.171875 -1.0625 L 0.40625 -0.4375 C 0.457031 -0.289062 0.488281 -0.191406 0.5 -0.140625 C 0.507812 -0.179688 0.53125 -0.253906 0.5625 -0.359375 C 0.601562 -0.460938 0.691406 -0.695312 0.828125 -1.0625 L 1 -1.0625 L 0.59375 0 Z M 0.40625 0 "/></g></g></g></g><g clip-path="url(#fea48315bc)"><g fill="#000000" fill-opacity="1"><g transform="translate(16.520278, 1.601247)"><g><path d="M 0.828125 0 L 0.796875 -0.15625 L 0.78125 -0.15625 C 0.726562 -0.0820312 0.675781 -0.0351562 0.625 -0.015625 C 0.570312 0.00390625 0.503906 0.015625 0.421875 0.015625 C 0.316406 0.015625 0.234375 -0.0078125 0.171875 -0.0625 C 0.117188 -0.113281 0.09375 -0.191406 0.09375 -0.296875 C 0.09375 -0.503906 0.265625 -0.613281 0.609375 -0.625 L 0.78125 -0.640625 L 0.78125 -0.703125 C 0.78125 -0.785156 0.757812 -0.847656 0.71875 -0.890625 C 0.6875 -0.929688 0.632812 -0.953125 0.5625 -0.953125 C 0.46875 -0.953125 0.367188 -0.921875 0.265625 -0.859375 L 0.203125 -0.984375 C 0.253906 -1.015625 0.3125 -1.035156 0.375 -1.046875 C 0.4375 -1.066406 0.5 -1.078125 0.5625 -1.078125 C 0.695312 -1.078125 0.789062 -1.046875 0.84375 -0.984375 C 0.90625 -0.929688 0.9375 -0.84375 0.9375 -0.71875 L 0.9375 0 Z M 0.453125 -0.109375 C 0.554688 -0.109375 0.632812 -0.132812 0.6875 -0.1875 C 0.75 -0.25 0.78125 -0.328125 0.78125 -0.421875 L 0.78125 -0.515625 L 0.625 -0.515625 C 0.488281 -0.515625 0.394531 -0.492188 0.34375 -0.453125 C 0.289062 -0.421875 0.265625 -0.367188 0.265625 -0.296875 C 0.265625 -0.234375 0.28125 -0.1875 0.3125 -0.15625 C 0.34375 -0.125 0.390625 -0.109375 0.453125 -0.109375 Z M 0.453125 -0.109375 "/></g></g></g></g><g clip-path="url(#434dc8cee4)"><g fill="#000000" fill-opacity="1"><g transform="translate(17.621313, 1.601247)"><g><path d="M 0.859375 -0.296875 C 0.859375 -0.191406 0.820312 -0.113281 0.75 -0.0625 C 0.675781 -0.0078125 0.570312 0.015625 0.4375 0.015625 C 0.289062 0.015625 0.179688 -0.00390625 0.109375 -0.046875 L 0.109375 -0.203125 C 0.160156 -0.171875 0.210938 -0.144531 0.265625 -0.125 C 0.328125 -0.113281 0.382812 -0.109375 0.4375 -0.109375 C 0.519531 -0.109375 0.582031 -0.117188 0.625 -0.140625 C 0.675781 -0.171875 0.703125 -0.21875 0.703125 -0.28125 C 0.703125 -0.320312 0.679688 -0.351562 0.640625 -0.375 C 0.609375 -0.40625 0.539062 -0.441406 0.4375 -0.484375 C 0.332031 -0.523438 0.257812 -0.554688 0.21875 -0.578125 C 0.175781 -0.609375 0.144531 -0.640625 0.125 -0.671875 C 0.113281 -0.710938 0.109375 -0.753906 0.109375 -0.796875 C 0.109375 -0.890625 0.140625 -0.957031 0.203125 -1 C 0.273438 -1.050781 0.375 -1.078125 0.5 -1.078125 C 0.613281 -1.078125 0.722656 -1.054688 0.828125 -1.015625 L 0.78125 -0.875 C 0.664062 -0.925781 0.566406 -0.953125 0.484375 -0.953125 C 0.410156 -0.953125 0.351562 -0.9375 0.3125 -0.90625 C 0.269531 -0.882812 0.25 -0.851562 0.25 -0.8125 C 0.25 -0.78125 0.253906 -0.753906 0.265625 -0.734375 C 0.285156 -0.710938 0.3125 -0.691406 0.34375 -0.671875 C 0.375 -0.660156 0.4375 -0.640625 0.53125 -0.609375 C 0.65625 -0.554688 0.738281 -0.503906 0.78125 -0.453125 C 0.832031 -0.410156 0.859375 -0.359375 0.859375 -0.296875 Z M 0.171875 -1.515625 L 0.28125 -1.515625 C 0.351562 -1.472656 0.421875 -1.414062 0.484375 -1.34375 C 0.566406 -1.425781 0.640625 -1.484375 0.703125 -1.515625 L 0.8125 -1.515625 L 0.8125 -1.5 L 0.75 -1.4375 C 0.65625 -1.332031 0.597656 -1.253906 0.578125 -1.203125 L 0.40625 -1.203125 C 0.394531 -1.222656 0.367188 -1.253906 0.328125 -1.296875 C 0.296875 -1.335938 0.242188 -1.40625 0.171875 -1.5 Z M 0.171875 -1.515625 "/></g></g></g></g><g clip-path="url(#680a58e553)"><g fill="#000000" fill-opacity="1"><g transform="translate(18.565748, 1.601247)"><g><path d="M 0.625 0.015625 C 0.46875 0.015625 0.34375 -0.03125 0.25 -0.125 C 0.15625 -0.21875 0.109375 -0.347656 0.109375 -0.515625 C 0.109375 -0.691406 0.148438 -0.828125 0.234375 -0.921875 C 0.316406 -1.023438 0.429688 -1.078125 0.578125 -1.078125 C 0.710938 -1.078125 0.816406 -1.03125 0.890625 -0.9375 C 0.972656 -0.851562 1.015625 -0.742188 1.015625 -0.609375 L 1.015625 -0.5 L 0.28125 -0.5 C 0.28125 -0.375 0.3125 -0.28125 0.375 -0.21875 C 0.4375 -0.15625 0.519531 -0.125 0.625 -0.125 C 0.738281 -0.125 0.851562 -0.144531 0.96875 -0.1875 L 0.96875 -0.046875 C 0.90625 -0.0234375 0.847656 -0.0078125 0.796875 0 C 0.753906 0.0078125 0.695312 0.015625 0.625 0.015625 Z M 0.578125 -0.953125 C 0.492188 -0.953125 0.425781 -0.921875 0.375 -0.859375 C 0.320312 -0.804688 0.289062 -0.726562 0.28125 -0.625 L 0.84375 -0.625 C 0.84375 -0.726562 0.816406 -0.804688 0.765625 -0.859375 C 0.722656 -0.921875 0.660156 -0.953125 0.578125 -0.953125 Z M 0.578125 -0.953125 "/></g></g></g></g><g clip-path="url(#4c634f45ec)"><g fill="#000000" fill-opacity="1"><g transform="translate(19.676449, 1.601247)"><g><path d="M 1.046875 -1.0625 L 1.046875 -0.953125 L 0.84375 -0.9375 C 0.863281 -0.914062 0.878906 -0.882812 0.890625 -0.84375 C 0.898438 -0.8125 0.90625 -0.769531 0.90625 -0.71875 C 0.90625 -0.613281 0.867188 -0.53125 0.796875 -0.46875 C 0.734375 -0.40625 0.640625 -0.375 0.515625 -0.375 C 0.484375 -0.375 0.453125 -0.378906 0.421875 -0.390625 C 0.359375 -0.359375 0.328125 -0.3125 0.328125 -0.25 C 0.328125 -0.21875 0.335938 -0.195312 0.359375 -0.1875 C 0.378906 -0.175781 0.421875 -0.171875 0.484375 -0.171875 L 0.671875 -0.171875 C 0.785156 -0.171875 0.875 -0.144531 0.9375 -0.09375 C 1 -0.0390625 1.03125 0.0234375 1.03125 0.109375 C 1.03125 0.234375 0.984375 0.328125 0.890625 0.390625 C 0.796875 0.453125 0.65625 0.484375 0.46875 0.484375 C 0.332031 0.484375 0.222656 0.457031 0.140625 0.40625 C 0.0664062 0.351562 0.03125 0.28125 0.03125 0.1875 C 0.03125 0.113281 0.0507812 0.0507812 0.09375 0 C 0.132812 -0.0390625 0.195312 -0.0664062 0.28125 -0.078125 C 0.25 -0.0976562 0.222656 -0.117188 0.203125 -0.140625 C 0.179688 -0.160156 0.171875 -0.191406 0.171875 -0.234375 C 0.171875 -0.265625 0.179688 -0.296875 0.203125 -0.328125 C 0.222656 -0.359375 0.257812 -0.390625 0.3125 -0.421875 C 0.25 -0.441406 0.203125 -0.476562 0.171875 -0.53125 C 0.140625 -0.582031 0.125 -0.644531 0.125 -0.71875 C 0.125 -0.832031 0.15625 -0.921875 0.21875 -0.984375 C 0.289062 -1.046875 0.390625 -1.078125 0.515625 -1.078125 C 0.578125 -1.078125 0.628906 -1.070312 0.671875 -1.0625 Z M 0.1875 0.171875 C 0.1875 0.234375 0.210938 0.28125 0.265625 0.3125 C 0.316406 0.34375 0.382812 0.359375 0.46875 0.359375 C 0.601562 0.359375 0.703125 0.335938 0.765625 0.296875 C 0.835938 0.253906 0.875 0.195312 0.875 0.125 C 0.875 0.0703125 0.851562 0.03125 0.8125 0 C 0.78125 -0.0195312 0.71875 -0.03125 0.625 -0.03125 L 0.421875 -0.03125 C 0.347656 -0.03125 0.289062 -0.015625 0.25 0.015625 C 0.207031 0.0546875 0.1875 0.109375 0.1875 0.171875 Z M 0.28125 -0.71875 C 0.28125 -0.644531 0.300781 -0.585938 0.34375 -0.546875 C 0.382812 -0.515625 0.441406 -0.5 0.515625 -0.5 C 0.671875 -0.5 0.75 -0.570312 0.75 -0.71875 C 0.75 -0.882812 0.671875 -0.96875 0.515625 -0.96875 C 0.441406 -0.96875 0.382812 -0.945312 0.34375 -0.90625 C 0.300781 -0.863281 0.28125 -0.800781 0.28125 -0.71875 Z M 0.28125 -0.71875 "/></g></g></g></g><g fill="#000000" fill-opacity="1"><g transform="translate(20.761051, 1.601247)"><g/></g></g><g clip-path="url(#c0184c45b5)"><g fill="#000000" fill-opacity="1"><g transform="translate(21.275318, 1.601247)"><g><path d="M 1.09375 -0.53125 C 1.09375 -0.351562 1.046875 -0.21875 0.953125 -0.125 C 0.867188 -0.03125 0.75 0.015625 0.59375 0.015625 C 0.5 0.015625 0.414062 -0.00390625 0.34375 -0.046875 C 0.269531 -0.0859375 0.210938 -0.148438 0.171875 -0.234375 C 0.128906 -0.316406 0.109375 -0.414062 0.109375 -0.53125 C 0.109375 -0.707031 0.148438 -0.84375 0.234375 -0.9375 C 0.328125 -1.03125 0.453125 -1.078125 0.609375 -1.078125 C 0.753906 -1.078125 0.867188 -1.023438 0.953125 -0.921875 C 1.046875 -0.828125 1.09375 -0.695312 1.09375 -0.53125 Z M 0.28125 -0.53125 C 0.28125 -0.394531 0.304688 -0.289062 0.359375 -0.21875 C 0.410156 -0.144531 0.488281 -0.109375 0.59375 -0.109375 C 0.695312 -0.109375 0.773438 -0.144531 0.828125 -0.21875 C 0.890625 -0.289062 0.921875 -0.394531 0.921875 -0.53125 C 0.921875 -0.664062 0.890625 -0.765625 0.828125 -0.828125 C 0.773438 -0.898438 0.695312 -0.9375 0.59375 -0.9375 C 0.488281 -0.9375 0.410156 -0.898438 0.359375 -0.828125 C 0.304688 -0.765625 0.28125 -0.664062 0.28125 -0.53125 Z M 0.28125 -0.53125 "/></g></g></g></g><g clip-path="url(#243a4ea968)"><g fill="#000000" fill-opacity="1"><g transform="translate(22.471087, 1.601247)"><g><path d="M 0.890625 -0.140625 C 0.804688 -0.0351562 0.691406 0.015625 0.546875 0.015625 C 0.410156 0.015625 0.300781 -0.03125 0.21875 -0.125 C 0.144531 -0.21875 0.109375 -0.351562 0.109375 -0.53125 C 0.109375 -0.707031 0.144531 -0.84375 0.21875 -0.9375 C 0.300781 -1.03125 0.410156 -1.078125 0.546875 -1.078125 C 0.691406 -1.078125 0.800781 -1.023438 0.875 -0.921875 L 0.890625 -0.921875 L 0.890625 -1.5 L 1.046875 -1.5 L 1.046875 0 L 0.921875 0 Z M 0.578125 -0.109375 C 0.679688 -0.109375 0.757812 -0.140625 0.8125 -0.203125 C 0.863281 -0.265625 0.890625 -0.363281 0.890625 -0.5 L 0.890625 -0.53125 C 0.890625 -0.675781 0.863281 -0.78125 0.8125 -0.84375 C 0.757812 -0.914062 0.675781 -0.953125 0.5625 -0.953125 C 0.46875 -0.953125 0.394531 -0.914062 0.34375 -0.84375 C 0.300781 -0.769531 0.28125 -0.664062 0.28125 -0.53125 C 0.28125 -0.394531 0.300781 -0.289062 0.34375 -0.21875 C 0.394531 -0.144531 0.472656 -0.109375 0.578125 -0.109375 Z M 0.578125 -0.109375 "/></g></g></g></g><g clip-path="url(#dc2428009a)"><g fill="#000000" fill-opacity="1"><g transform="translate(23.684255, 1.601247)"><g><path d="M 0.328125 0 L 0.171875 0 L 0.171875 -1.5 L 0.328125 -1.5 Z M 0.328125 0 "/></g></g></g></g><g clip-path="url(#9796b992f3)"><g fill="#000000" fill-opacity="1"><g transform="translate(24.184989, 1.601247)"><g><path d="M 1.09375 -0.53125 C 1.09375 -0.351562 1.046875 -0.21875 0.953125 -0.125 C 0.867188 -0.03125 0.75 0.015625 0.59375 0.015625 C 0.5 0.015625 0.414062 -0.00390625 0.34375 -0.046875 C 0.269531 -0.0859375 0.210938 -0.148438 0.171875 -0.234375 C 0.128906 -0.316406 0.109375 -0.414062 0.109375 -0.53125 C 0.109375 -0.707031 0.148438 -0.84375 0.234375 -0.9375 C 0.328125 -1.03125 0.453125 -1.078125 0.609375 -1.078125 C 0.753906 -1.078125 0.867188 -1.023438 0.953125 -0.921875 C 1.046875 -0.828125 1.09375 -0.695312 1.09375 -0.53125 Z M 0.28125 -0.53125 C 0.28125 -0.394531 0.304688 -0.289062 0.359375 -0.21875 C 0.410156 -0.144531 0.488281 -0.109375 0.59375 -0.109375 C 0.695312 -0.109375 0.773438 -0.144531 0.828125 -0.21875 C 0.890625 -0.289062 0.921875 -0.394531 0.921875 -0.53125 C 0.921875 -0.664062 0.890625 -0.765625 0.828125 -0.828125 C 0.773438 -0.898438 0.695312 -0.9375 0.59375 -0.9375 C 0.488281 -0.9375 0.410156 -0.898438 0.359375 -0.828125 C 0.304688 -0.765625 0.28125 -0.664062 0.28125 -0.53125 Z M 0.28125 -0.53125 "/></g></g></g></g><g clip-path="url(#8bcb9e5405)"><g fill="#000000" fill-opacity="1"><g transform="translate(25.380758, 1.601247)"><g><path d="M 1.53125 0 L 1.53125 -0.6875 C 1.53125 -0.769531 1.507812 -0.832031 1.46875 -0.875 C 1.4375 -0.914062 1.378906 -0.9375 1.296875 -0.9375 C 1.203125 -0.9375 1.128906 -0.90625 1.078125 -0.84375 C 1.023438 -0.789062 1 -0.707031 1 -0.59375 L 1 0 L 0.84375 0 L 0.84375 -0.6875 C 0.84375 -0.769531 0.820312 -0.832031 0.78125 -0.875 C 0.75 -0.914062 0.695312 -0.9375 0.625 -0.9375 C 0.519531 -0.9375 0.441406 -0.90625 0.390625 -0.84375 C 0.347656 -0.789062 0.328125 -0.695312 0.328125 -0.5625 L 0.328125 0 L 0.171875 0 L 0.171875 -1.0625 L 0.296875 -1.0625 L 0.328125 -0.921875 C 0.359375 -0.972656 0.398438 -1.007812 0.453125 -1.03125 C 0.515625 -1.0625 0.582031 -1.078125 0.65625 -1.078125 C 0.8125 -1.078125 0.914062 -1.019531 0.96875 -0.90625 L 0.984375 -0.90625 C 1.015625 -0.957031 1.054688 -1 1.109375 -1.03125 C 1.171875 -1.0625 1.242188 -1.078125 1.328125 -1.078125 C 1.441406 -1.078125 1.53125 -1.046875 1.59375 -0.984375 C 1.65625 -0.921875 1.6875 -0.820312 1.6875 -0.6875 L 1.6875 0 Z M 1.53125 0 "/></g></g></g></g><g clip-path="url(#28a3855879)"><g fill="#000000" fill-opacity="1"><g transform="translate(27.222261, 1.601247)"><g><path d="M 0.328125 -0.546875 C 0.359375 -0.585938 0.398438 -0.640625 0.453125 -0.703125 L 0.796875 -1.0625 L 0.984375 -1.0625 L 0.5625 -0.609375 L 1.015625 0 L 0.828125 0 L 0.453125 -0.5 L 0.328125 -0.390625 L 0.328125 0 L 0.171875 0 L 0.171875 -1.5 L 0.328125 -1.5 L 0.328125 -0.703125 C 0.328125 -0.671875 0.328125 -0.617188 0.328125 -0.546875 Z M 0.328125 -0.546875 "/></g></g></g></g><g clip-path="url(#3f8daf8fa9)"><g fill="#000000" fill-opacity="1"><g transform="translate(28.261429, 1.601247)"><g><path d="M 0.828125 0 L 0.796875 -0.15625 L 0.78125 -0.15625 C 0.726562 -0.0820312 0.675781 -0.0351562 0.625 -0.015625 C 0.570312 0.00390625 0.503906 0.015625 0.421875 0.015625 C 0.316406 0.015625 0.234375 -0.0078125 0.171875 -0.0625 C 0.117188 -0.113281 0.09375 -0.191406 0.09375 -0.296875 C 0.09375 -0.503906 0.265625 -0.613281 0.609375 -0.625 L 0.78125 -0.640625 L 0.78125 -0.703125 C 0.78125 -0.785156 0.757812 -0.847656 0.71875 -0.890625 C 0.6875 -0.929688 0.632812 -0.953125 0.5625 -0.953125 C 0.46875 -0.953125 0.367188 -0.921875 0.265625 -0.859375 L 0.203125 -0.984375 C 0.253906 -1.015625 0.3125 -1.035156 0.375 -1.046875 C 0.4375 -1.066406 0.5 -1.078125 0.5625 -1.078125 C 0.695312 -1.078125 0.789062 -1.046875 0.84375 -0.984375 C 0.90625 -0.929688 0.9375 -0.84375 0.9375 -0.71875 L 0.9375 0 Z M 0.453125 -0.109375 C 0.554688 -0.109375 0.632812 -0.132812 0.6875 -0.1875 C 0.75 -0.25 0.78125 -0.328125 0.78125 -0.421875 L 0.78125 -0.515625 L 0.625 -0.515625 C 0.488281 -0.515625 0.394531 -0.492188 0.34375 -0.453125 C 0.289062 -0.421875 0.265625 -0.367188 0.265625 -0.296875 C 0.265625 -0.234375 0.28125 -0.1875 0.3125 -0.15625 C 0.34375 -0.125 0.390625 -0.109375 0.453125 -0.109375 Z M 0.453125 -0.109375 "/></g></g></g></g></svg>